<svg id="Layer_1" data-name="Layer 1" xmlns="http://www.w3.org/2000/svg" viewBox="0 0 25 25"><defs><style>.cls-1{fill:#807f83;}</style></defs><title>rating_scale</title><path class="cls-1" d="M7.71,0V5.41H25V0ZM23.5,3.91H9.21V1.5H23.5Z"/><polygon class="cls-1" points="2.35 1.33 3.02 1.95 0 1.95 0 3.45 3.02 3.45 2.35 4.08 3.37 5.18 6.04 2.7 3.37 0.23 2.35 1.33"/><path class="cls-1" d="M7.71,15.2H25V9.8H7.71Zm1.5-3.9H23.5v2.4H9.21Z"/><polygon class="cls-1" points="2.35 11.12 3.02 11.75 0 11.75 0 13.25 3.02 13.25 2.35 13.88 3.37 14.98 6.04 12.5 3.37 10.02 2.35 11.12"/><path class="cls-1" d="M7.71,25H25V19.59H7.71Zm1.5-3.91H23.5V23.5H9.21Z"/><polygon class="cls-1" points="2.35 20.92 3.02 21.55 0 21.55 0 23.05 3.02 23.05 2.35 23.67 3.37 24.77 6.04 22.3 3.37 19.82 2.35 20.92"/></svg>