<svg id="Layer_1" data-name="Layer 1" xmlns="http://www.w3.org/2000/svg" viewBox="0 0 25 25"><defs><style>.cls-1{fill:#807f83;}</style></defs><polygon class="cls-1" points="3.53 13.94 1.5 13.94 1.5 1.5 13.94 1.5 13.94 3.53 15.44 3.53 15.44 0 0 0 0 15.44 3.53 15.44 3.53 13.94"/><polygon class="cls-1" points="8.31 18.72 6.28 18.72 6.28 6.28 18.72 6.28 18.72 8.31 20.22 8.31 20.22 4.78 4.78 4.78 4.78 20.22 8.31 20.22 8.31 18.72"/><path class="cls-1" d="M9.56,9.56V25H25V9.56Zm1.5,1.5H23.5V23.5H11.06Z"/><polygon class="cls-1" points="20.36 13.68 15.83 18.21 14.16 16.65 12.85 18.05 15.87 20.88 21.72 15.03 20.36 13.68"/></svg>