<svg id="Layer_1" data-name="Layer 1" xmlns="http://www.w3.org/2000/svg" viewBox="0 0 25 25"><defs><style>.cls-1{fill:#807f83;}</style></defs><path class="cls-1" d="M22.09,3V0H17.94V3H14.57V0H10.43V3H7.06V0H2.91V3H0V25H25V3ZM1.5,23.5V10.33h22V23.5ZM6.06,1V6.31H3.91V1Zm7.51,0V6.31H11.43V1Zm7.52,0V6.31H18.94V1Z"/><path class="cls-1" d="M17,12.5h-1.5v1.94H9.55V12.5H8.05v1.94H2.91v1.5H8.05v2.73H2.91v1.5H8.05v1.94h1.5V20.17h5.9v1.94H17V20.17h5.14v-1.5H17V15.94h5.14v-1.5H17Zm-1.5,6.17H9.55V15.94h5.9Z"/></svg>