<svg id="Layer_1" data-name="Layer 1" xmlns="http://www.w3.org/2000/svg" viewBox="0 0 25 25"><defs><style>.cls-1{fill:#807f83;}</style></defs><path class="cls-1" d="M20.48,8.46a7.63,7.63,0,0,0-7.43-7,7.55,7.55,0,0,0-7.21,5.8H5.68a5.84,5.84,0,0,0-5.68,6,5.84,5.84,0,0,0,5.68,6H11V17.7H5.68A4.34,4.34,0,0,1,1.5,13.22,4.34,4.34,0,0,1,5.66,8.74h.13l1.2,0,.3-1.15A6.06,6.06,0,0,1,13.05,3,6.13,6.13,0,0,1,19,8.62l.12,1.18,1.18.15A3.79,3.79,0,0,1,23.5,13.8a3.78,3.78,0,0,1-3.63,3.9H14v1.5h5.87A5.27,5.27,0,0,0,25,13.8,5.29,5.29,0,0,0,20.48,8.46Z"/><polygon class="cls-1" points="13.25 11.54 17.46 16.08 18.56 15.06 12.5 8.52 6.44 15.06 7.54 16.08 11.75 11.54 11.75 23.55 13.25 23.55 13.25 11.54"/></svg>