<svg id="Layer_1" data-name="Layer 1" xmlns="http://www.w3.org/2000/svg" viewBox="0 0 25 25"><defs><style>.cls-1{fill:#807f83;}</style></defs><title>free_text</title><polygon class="cls-1" points="4 17.75 1.5 17.75 1.5 7.25 4 7.25 4 5.75 0 5.75 0 19.25 4 19.25 4 17.75"/><polygon class="cls-1" points="8 7.25 23.5 7.25 23.5 17.75 8 17.75 8 19.25 25 19.25 25 5.75 8 5.75 8 7.25"/><polygon class="cls-1" points="7 21.25 7 3.75 10 3.75 10 1.75 2 1.75 2 3.75 5 3.75 5 21.25 2 21.25 2 23.25 10 23.25 10 21.25 7 21.25"/></svg>