<svg id="Layer_1" data-name="Layer 1" xmlns="http://www.w3.org/2000/svg" viewBox="0 0 25 25"><defs><style>.cls-1{fill:#807f83;}</style></defs><path class="cls-1" d="M12.56,16.16l-.71-.71-.71-.71-.7.71L5.13,20.76l-2.3-2.3-.71-.71-.71.71-.7.7L0,19.87l.71.71,3,3,.71.71.71.71.71-.71.7-.71,6-6,.7-.71ZM5.84,22.88l-.71.7h0l-.71-.71h0l-3-3,.71-.71,3,3,6-6,.71.7Z"/><path class="cls-1" d="M22,19.87l2.3-2.3.71-.71-.71-.7-.7-.71-.71-.71-.71.71-2.3,2.3-2.3-2.3-.71-.71-.7.71-.71.71-.71.7.71.71,2.3,2.3-2.3,2.3-.71.71.71.71.71.7.7.71.71-.71,2.3-2.3,2.3,2.3.71.71.71-.71.7-.7.71-.71-.71-.71Zm.89,3.72-3-3-3,3-.7-.71,3-3-3-3,.7-.7,3,3,3-3,.71.7-3,3,3,3Z"/><path class="cls-1" d="M12.56,1.41l-.71-.7L11.14,0l-.7.71L5.13,6l-2.3-2.3L2.12,3l-.71.7-.7.71L0,5.13l.71.71,3,3,.71.71.71.71.71-.71.7-.71,6-6,.7-.71ZM5.84,8.14l-.71.7h0l-.71-.7h0l-3-3,.71-.71,3,3,6-6,.71.71Z"/><path class="cls-1" d="M22,5.13l2.3-2.3L25,2.12l-.71-.71-.7-.7L22.88,0l-.71.71L19.87,3,17.57.71,16.86,0l-.7.71-.71.7-.71.71.71.71,2.3,2.3-2.3,2.3-.71.71.71.7.71.71.7.71.71-.71,2.3-2.3,2.3,2.3.71.71.71-.71.7-.71.71-.7-.71-.71Zm.89,3.71-3-3-3,3-.7-.7,3-3-3-3,.7-.71,3,3,3-3,.71.71-3,3,3,3Z"/></svg>