<svg id="Layer_1" data-name="Layer 1" xmlns="http://www.w3.org/2000/svg" viewBox="0 0 25 25"><defs><style>.cls-1{fill:#807f83;}</style></defs><polygon class="cls-1" points="25 0 0 0 0 10 4.5 10 4.5 9 1 9 1 1 24 1 24 9 12.07 9 12.07 10 25 10 25 0"/><rect class="cls-1" x="7.5" y="9" width="1.56" height="1"/><polygon class="cls-1" points="11.07 5 13.57 5 13.57 4 11.01 4 10.01 4 7.57 4 7.57 5 10.07 5 10.07 10.5 11.07 10.5 11.07 5"/><polygon class="cls-1" points="6.5 3 6.57 3 7.57 3 10.01 3 10.01 2 2 2 2 3 5.5 3 5.5 10.5 6.5 10.5 6.5 3"/><polygon class="cls-1" points="25 13.5 0 13.5 0 23.5 4.5 23.5 4.5 22.5 1 22.5 1 14.5 24 14.5 24 22.5 12.07 22.5 12.07 23.5 25 23.5 25 13.5"/><rect class="cls-1" x="7.5" y="22.5" width="1.56" height="1"/><polygon class="cls-1" points="11.07 18.5 13.57 18.5 13.57 17.5 11.01 17.5 10.01 17.5 7.57 17.5 7.57 18.5 10.07 18.5 10.07 24 11.07 24 11.07 18.5"/><polygon class="cls-1" points="6.5 16.5 6.57 16.5 7.57 16.5 10.01 16.5 10.01 15.5 2 15.5 2 16.5 5.5 16.5 5.5 24 6.5 24 6.5 16.5"/></svg>