<svg id="Layer_1" data-name="Layer 1" xmlns="http://www.w3.org/2000/svg" viewBox="0 0 25 25"><defs><style>.cls-1{fill:#807f83;}</style></defs><path class="cls-1" d="M18.19,3.88a.65.65,0,0,1,.29.14l.79-1.52,1,1.82a1,1,0,0,0,.71.51l2,.35L21.53,6.65a1,1,0,0,0-.27.84l.29,2-1.84-.9a1,1,0,0,0-.44-.11,1,1,0,0,0-.44.11L17,9.52l.3-2A1,1,0,0,0,17,6.65L17,6.6l-.69.72,0,0-.16,1.08.35,2.45,2.78-1.37,3.54,1.74-.56-3.9L25,4.52l-3.89-.67L19.27.36l-1.79,3.4Z"/><path class="cls-1" d="M11.56,3.88l0,0,.74-1.4,1,1.82a1,1,0,0,0,.71.51l2,.35L14.61,6.65a1,1,0,0,0-.27.84l.29,2-1.84-.9a.94.94,0,0,0-.88,0l-1.84.9.29-2a1,1,0,0,0-.19-.71l-.78.79.46,3.17,2.5-1.23,3.54,1.74-.56-3.9,2.75-2.83-3.89-.67L12.35.36,10.58,3.71Z"/><path class="cls-1" d="M2.19,11.25,5.73,9.51l3.54,1.74L8.7,7.35l2.75-2.83L7.57,3.85,5.73.36,3.89,3.85,0,4.52,2.75,7.35ZM4.77,4.32l1-1.82.95,1.82a1,1,0,0,0,.72.51l2,.35L8,6.65a1,1,0,0,0-.28.84l.3,2-1.84-.9a1,1,0,0,0-.44-.11,1,1,0,0,0-.44.11l-1.84.9.29-2a1,1,0,0,0-.27-.84L2,5.18l2-.35A1,1,0,0,0,4.77,4.32Z"/><path class="cls-1" d="M19.27,13.75l-1.79,3.39.71.13a.64.64,0,0,1,.29.13l.79-1.51,1,1.81a1,1,0,0,0,.71.52l2,.35L21.53,20a1,1,0,0,0-.27.84l.29,2L19.71,22a1,1,0,0,0-.44-.1,1,1,0,0,0-.44.1L17,22.9l.3-2A1,1,0,0,0,17,20L17,20l-.69.71,0,0-.16,1.08.35,2.46,2.78-1.37,3.54,1.74-.56-3.91L25,17.91l-3.89-.68Z"/><path class="cls-1" d="M15.89,24.64l-.56-3.91,2.75-2.82-3.89-.68-1.84-3.48L10.58,17.1l1,.17,0,0,.74-1.4,1,1.81a1,1,0,0,0,.71.52l2,.35L14.61,20a1,1,0,0,0-.27.84l.29,2L12.79,22a1,1,0,0,0-.88,0l-1.84.9.29-2a1,1,0,0,0-.19-.72l-.78.8.46,3.17,2.5-1.23Z"/><path class="cls-1" d="M5.73,22.9l3.54,1.74L8.7,20.73l2.75-2.82-3.88-.68L5.73,13.75,3.89,17.23,0,17.91l2.75,2.82-.56,3.91Zm-1-5.2,1-1.81.95,1.81a1,1,0,0,0,.72.52l2,.35L8,20a1,1,0,0,0-.28.84l.3,2L6.17,22a1,1,0,0,0-.44-.1,1,1,0,0,0-.44.1l-1.84.9.29-2A1,1,0,0,0,3.47,20L2,18.57l2-.35A1,1,0,0,0,4.77,17.7Z"/></svg>