<svg id="Layer_1" data-name="Layer 1" xmlns="http://www.w3.org/2000/svg" viewBox="0 0 25 25"><defs><style>.cls-1{fill:#807f83;}</style></defs><path class="cls-1" d="M12.5,0A12.5,12.5,0,1,0,25,12.5,12.5,12.5,0,0,0,12.5,0Zm0,23A10.5,10.5,0,1,1,23,12.5,10.51,10.51,0,0,1,12.5,23Z"/><circle class="cls-1" cx="8.54" cy="9.66" r="1.5"/><circle class="cls-1" cx="16.46" cy="9.66" r="1.5"/><path class="cls-1" d="M17.5,13.84a1,1,0,0,0-1,1,4,4,0,0,1-8,0c0-.1,0-.2,0-.3a1,1,0,0,0-2-.15c0,.15,0,.3,0,.45a6,6,0,0,0,12,0A1,1,0,0,0,17.5,13.84Z"/></svg>