<svg id="Layer_1" data-name="Layer 1" xmlns="http://www.w3.org/2000/svg" viewBox="0 0 25 25"><defs><style>.cls-1{fill:#807f83;}</style></defs><path class="cls-1" d="M5.75,0A5.75,5.75,0,1,0,11.5,5.75,5.74,5.74,0,0,0,5.75,0Zm0,10.5A4.75,4.75,0,1,1,10.5,5.75,4.75,4.75,0,0,1,5.75,10.5Z"/><circle class="cls-1" cx="3.93" cy="4.44" r="0.69"/><circle class="cls-1" cx="7.57" cy="4.44" r="0.69"/><path class="cls-1" d="M8.05,6.33a.5.5,0,0,0-.5.5,1.8,1.8,0,0,1-3.6,0V6.69a.5.5,0,0,0-.47-.53A.49.49,0,0,0,3,6.62a1.48,1.48,0,0,0,0,.21,2.8,2.8,0,0,0,5.6,0A.5.5,0,0,0,8.05,6.33Z"/><path class="cls-1" d="M19.25,11.5A5.75,5.75,0,1,0,13.5,5.75,5.74,5.74,0,0,0,19.25,11.5Zm0-10.5A4.75,4.75,0,1,1,14.5,5.75,4.75,4.75,0,0,1,19.25,1Z"/><circle class="cls-1" cx="17.43" cy="4.44" r="0.69"/><circle class="cls-1" cx="21.07" cy="4.44" r="0.69"/><path class="cls-1" d="M19.25,9.63a2.81,2.81,0,0,0,2.8-2.8.5.5,0,0,0-1,0,1.8,1.8,0,1,1-3.6,0V6.69A.5.5,0,0,0,17,6.16a.49.49,0,0,0-.53.46,1.48,1.48,0,0,0,0,.21A2.81,2.81,0,0,0,19.25,9.63Z"/><path class="cls-1" d="M5.75,13.5a5.75,5.75,0,1,0,5.75,5.75A5.74,5.74,0,0,0,5.75,13.5Zm0,10.5a4.75,4.75,0,1,1,4.75-4.75A4.75,4.75,0,0,1,5.75,24Z"/><circle class="cls-1" cx="3.93" cy="17.94" r="0.69"/><circle class="cls-1" cx="7.57" cy="17.94" r="0.69"/><path class="cls-1" d="M8.05,19.83a.5.5,0,0,0-.5.5,1.8,1.8,0,0,1-3.6,0v-.14a.5.5,0,0,0-.47-.53.49.49,0,0,0-.53.46,1.48,1.48,0,0,0,0,.21,2.8,2.8,0,0,0,5.6,0A.5.5,0,0,0,8.05,19.83Z"/><path class="cls-1" d="M19.25,13.5A5.75,5.75,0,1,0,25,19.25,5.74,5.74,0,0,0,19.25,13.5Zm0,10.5A4.75,4.75,0,1,1,24,19.25,4.75,4.75,0,0,1,19.25,24Z"/><circle class="cls-1" cx="17.43" cy="17.94" r="0.69"/><circle class="cls-1" cx="21.07" cy="17.94" r="0.69"/><path class="cls-1" d="M21.55,19.83a.5.5,0,0,0-.5.5,1.8,1.8,0,0,1-3.6,0v-.14a.5.5,0,0,0-.47-.53.49.49,0,0,0-.53.46,1.48,1.48,0,0,0,0,.21,2.8,2.8,0,0,0,5.6,0A.5.5,0,0,0,21.55,19.83Z"/></svg>