<svg id="Layer_1" data-name="Layer 1" xmlns="http://www.w3.org/2000/svg" viewBox="0 0 25 25"><defs><style>.cls-1{fill:#807f83;}</style></defs><path class="cls-1" d="M17.25,6.1l-.89-2.4a1.39,1.39,0,0,0-1.3-.9H9.94a1.39,1.39,0,0,0-1.3.9L7.75,6.1H6.64v-3H1.49v3H0V22.84H25V6.1ZM23.5,21.34H1.5V7.6h22ZM5.14,4.56V6.1H3V4.56ZM15,4.3l.67,1.8H9.35L10,4.3Z"/><path class="cls-1" d="M12.5,8.31a6.16,6.16,0,1,0,6.16,6.16A6.16,6.16,0,0,0,12.5,8.31Zm0,11.32a5.16,5.16,0,1,1,5.16-5.16A5.17,5.17,0,0,1,12.5,19.63Z"/><path class="cls-1" d="M12.5,10.68a3.79,3.79,0,1,0,3.79,3.79A3.79,3.79,0,0,0,12.5,10.68Z"/><path class="cls-1" d="M21.27,10.34a1.05,1.05,0,1,0-1.05-1.05A1,1,0,0,0,21.27,10.34Z"/></svg>