<svg id="Layer_1" data-name="Layer 1" xmlns="http://www.w3.org/2000/svg" viewBox="0 0 25 25"><defs><style>.cls-1{fill:#807f83;}</style></defs><path class="cls-1" d="M0,25H9.56V15.44H0Zm1.5-8.06H8.06v1.67l-1.1-1L4,21.08,2.52,19.84,1.54,21l2.55,2.2,4-4.5V23.5H1.5Z"/><path class="cls-1" d="M15.44,15.44V25H25V15.44ZM23.5,23.5H16.94V16.94H23.5Z"/><path class="cls-1" d="M21,0H4V13.87H21ZM19.5,1.5V9.28L16.19,6.14l-4,3.51L8.6,7.13,5.5,9.83V1.5ZM5.5,11.82,8.7,9l3.58,2.52,3.87-3.38,3.35,3.18v1H5.5Z"/><path class="cls-1" d="M12.23,7.07A2.43,2.43,0,1,0,9.8,4.64,2.43,2.43,0,0,0,12.23,7.07Zm0-3.36a.93.93,0,1,1-.93.93A.93.93,0,0,1,12.23,3.71Z"/></svg>