<svg id="Layer_1" data-name="Layer 1" xmlns="http://www.w3.org/2000/svg" viewBox="0 0 25 25"><defs><style>.cls-1{fill:#807f83;}</style></defs><path class="cls-1" d="M0,15.86H6.72V9.14H0Zm1.5-5.22H5.22v3.72H1.5Z"/><path class="cls-1" d="M0,6.72H6.72V0H0ZM1.5,1.5H5.22V5.22H1.5Z"/><path class="cls-1" d="M0,25H6.72V18.28H0Zm1.5-5.22H5.22V23.5H1.5Z"/><path class="cls-1" d="M9.14,15.86h6.72V9.14H9.14Zm1.5-5.22h3.72v3.72H10.64Z"/><path class="cls-1" d="M9.14,6.72h6.72V0H9.14Zm1.5-5.22h3.72V5.22H10.64Z"/><path class="cls-1" d="M9.14,25h6.72V18.28H9.14Zm1.5-5.22h3.72V23.5H10.64Z"/><path class="cls-1" d="M18.28,15.86H25V9.14H18.28Zm1.5-5.22H23.5v3.72H19.78Z"/><path class="cls-1" d="M18.28,0V6.72H25V0ZM23.5,5.22H19.78V1.5H23.5Z"/><path class="cls-1" d="M18.28,25H25V18.28H18.28Zm1.5-5.22H23.5V23.5H19.78Z"/><polygon class="cls-1" points="2.89 3.61 2.51 3.27 2.01 3.83 2.96 4.67 4.75 2.62 4.18 2.13 2.89 3.61"/></svg>