<svg id="Layer_1" data-name="Layer 1" xmlns="http://www.w3.org/2000/svg" viewBox="0 0 25 25"><defs><style>.cls-1{fill:#807f83;}</style></defs><path class="cls-1" d="M0,6.72H6.72V0H0ZM1.5,1.5H5.22V5.22H1.5Z"/><path class="cls-1" d="M0,15.86H6.72V9.14H0Zm1.5-5.22H5.22v3.72H1.5Z"/><rect class="cls-1" x="8.02" y="2.36" width="16.98" height="2"/><rect class="cls-1" x="8.02" y="11.5" width="16.98" height="2"/><rect class="cls-1" x="8.02" y="20.64" width="16.98" height="2"/><path class="cls-1" d="M0,25H6.72V18.28H0Zm1.5-5.22H5.22V23.5H1.5Z"/><polygon class="cls-1" points="2.96 3.61 2.58 3.27 2.08 3.83 3.04 4.67 4.82 2.62 4.25 2.13 2.96 3.61"/><polygon class="cls-1" points="2.96 12.85 2.58 12.51 2.08 13.08 3.04 13.92 4.82 11.86 4.25 11.37 2.96 12.85"/></svg>