<svg id="Layer_1" data-name="Layer 1" xmlns="http://www.w3.org/2000/svg" viewBox="0 0 25 25"><defs><style>.cls-1{fill:#807f83;}</style></defs><path class="cls-1" d="M1.7,11.1H3.78l.2-.22a2.17,2.17,0,0,1,0-.36,2.85,2.85,0,0,1,0-.42H1.7a.71.71,0,0,1,0-1.41h3l.2-.21a2.23,2.23,0,0,1,0-.37,3,3,0,0,1,0-.42H2.6a.7.7,0,1,1,0-1.4H5v-1H3.51a.7.7,0,1,1,0-1.4H5v-1H4.46a.7.7,0,0,1,0-1.4h8.66V3h3.14a1,1,0,0,1,.63-.46V0H13.06V.49H4.46A1.68,1.68,0,0,0,2.79,2a1.6,1.6,0,0,0,0,.23h0A1.66,1.66,0,0,0,3,3,1.71,1.71,0,0,0,1.8,4.59h0A1.71,1.71,0,0,0,2,5.4a1.7,1.7,0,0,0-.91.84A1.61,1.61,0,0,0,.9,7h0a2.3,2.3,0,0,0,0,.26,1.78,1.78,0,0,0,.18.55A1.71,1.71,0,0,0,0,9.4H0A1.7,1.7,0,0,0,1.7,11.1Z"/><path class="cls-1" d="M7.07,18a1.84,1.84,0,0,0,.47-.07,2.41,2.41,0,0,1-.38-.95l-.09,0a1,1,0,0,1-1-1v-.3H5.75A2.77,2.77,0,0,1,5,15.51v.41A2,2,0,0,0,7.07,18Z"/><path class="cls-1" d="M4.05,12.92h0a1.7,1.7,0,0,0,1.7,1.7H7.83c.07-.07.13-.15.2-.21s0-.25,0-.37a3,3,0,0,1,0-.42H5.75a.7.7,0,0,1,0-1.4h3c.06-.07.12-.15.19-.22s0-.24,0-.36A1.86,1.86,0,0,1,9,11.22H6.66a.71.71,0,0,1,0-1.41h2.4v-1H7.56a.7.7,0,1,1,0-1.4h1.5v-1H8.52a.7.7,0,0,1,0-1.4h8.65V6.53h3.14A1,1,0,0,1,21,6.07V3.52H17.11V4H8.52a1.7,1.7,0,0,0-1.7,1.7h0a1.55,1.55,0,0,0,0,.31A1.94,1.94,0,0,0,7,6.5,1.72,1.72,0,0,0,5.94,7.58a1.89,1.89,0,0,0-.08.53h0a1.65,1.65,0,0,0,0,.32,1.66,1.66,0,0,0,.16.49A1.71,1.71,0,0,0,5,10.2a1.75,1.75,0,0,0,0,.32H5a1.49,1.49,0,0,0,0,.21,1.8,1.8,0,0,0,.1.4c0,.07,0,.13.08.19a2,2,0,0,0-.45.25A1.71,1.71,0,0,0,4.05,12.92Z"/><path class="cls-1" d="M11.12,21.48a2,2,0,0,0,1-.29v-.4a1,1,0,0,1,.08-.38l.53-1.27h-.59v.32a1,1,0,0,1-1,1,1,1,0,0,1-1-1v-.31H9.81A2.46,2.46,0,0,1,9.09,19v.42A2,2,0,0,0,11.12,21.48Z"/><path class="cls-1" d="M25,19.39V7H21.17v.49h-8.6A1.71,1.71,0,0,0,11.06,10a1.71,1.71,0,0,0-1.15,1.62,1.67,1.67,0,0,0,.2.8A1.72,1.72,0,0,0,9,14a1.7,1.7,0,0,0,.2.81,1.7,1.7,0,0,0,.6,3.29h4.44l-1.11,2.65V23a2,2,0,0,0,4.06,0l0-1.07a.81.81,0,0,1,.23-.57l3.17-3.21h.55v1.25ZM16.2,23a1,1,0,0,1-2.06,0V21l1.61-3.85H9.81a.7.7,0,1,1,0-1.4h3.31v-1H10.71a.7.7,0,1,1,0-1.4h2.41v-1H11.61a.71.71,0,0,1,0-1.41h1.51v-1h-.55a.7.7,0,1,1,0-1.4h8.65v8.61h-1l-3.46,3.51a1.8,1.8,0,0,0-.52,1.26Z"/></svg>