<svg id="Layer_1" data-name="Layer 1" xmlns="http://www.w3.org/2000/svg" viewBox="0 0 25 25"><defs><style>.cls-1{fill:#807f83;}</style></defs><path class="cls-1" d="M8.11,6.59A3,3,0,0,1,9.83,6a3.12,3.12,0,0,1,1,.19V5.61H8.11Z"/><path class="cls-1" d="M23.3,6.86H18.86L20,4.21V2A2,2,0,0,0,15.9,2V3.08a.58.58,0,0,1,0,.19,3,3,0,0,1,.69.86,1.83,1.83,0,0,0,.35-1V2a1,1,0,0,1,1-1,1,1,0,0,1,1,1V4l-1.6,3.85H23.3a.7.7,0,0,1,0,1.4H20V9.5a2.7,2.7,0,0,1,1.24.76H22.4a.7.7,0,1,1,0,1.4h-.5a2,2,0,0,1,.05.42,2.61,2.61,0,0,1-.1.69.7.7,0,0,1-.36,1.3h-.42l-.05,0a2.17,2.17,0,0,1,0,.36,2.58,2.58,0,0,1-.11.73.67.67,0,0,1,.31.56.71.71,0,0,1-.7.7h-.38l0,.05a2.23,2.23,0,0,1,0,.37,2.78,2.78,0,0,1-.06.58h.46a1.32,1.32,0,0,0,.34,0,1.7,1.7,0,0,0,1.36-1.66A1.6,1.6,0,0,0,22,15a1.72,1.72,0,0,0,1.16-1.61h0a1.67,1.67,0,0,0-.21-.8,1.7,1.7,0,0,0,.9-2.41,1.68,1.68,0,0,0,.8-.61,1.75,1.75,0,0,0,.31-1A1.7,1.7,0,0,0,23.3,6.86Z"/><path class="cls-1" d="M4.05,11.68a1,1,0,0,1,.65.48L6.78,10V9.13H4.05Z"/><path class="cls-1" d="M18.88,17.77a1.68,1.68,0,0,0,.26-.88h0a1.68,1.68,0,0,0-.2-.81A1.72,1.72,0,0,0,20,14.71a1.81,1.81,0,0,0,0-.23h0a1.67,1.67,0,0,0-.2-.8A1.8,1.8,0,0,0,21,12.08h0a1.7,1.7,0,0,0-1.7-1.7H14.81l.69-1.66.41-1h0V5.55a2,2,0,0,0-4.06,0V6.6a1.06,1.06,0,0,1,0,.19,3.09,3.09,0,0,1,.69.87,1.85,1.85,0,0,0,.35-1V5.54a1,1,0,0,1,1-1,1,1,0,0,1,1,1v2l-1.6,3.85h5.94a.7.7,0,0,1,0,1.4H15.94V13a2.75,2.75,0,0,1,1.24.76h1.16a.71.71,0,0,1,0,1.41h-.49a2.71,2.71,0,0,1,0,.41,2.61,2.61,0,0,1-.1.69.7.7,0,0,1-.35,1.3H17l0,.05c0,.12,0,.24,0,.37a2.46,2.46,0,0,1-.11.72.68.68,0,0,1,.3.56.7.7,0,0,1-.7.7h-.37l0,.05c0,.12,0,.25,0,.37A2.78,2.78,0,0,1,16,21h.45a1.7,1.7,0,0,0,1.7-1.7h0a1.73,1.73,0,0,0-.12-.6A1.07,1.07,0,0,0,18,18.5a2.05,2.05,0,0,0,.39-.2A1.81,1.81,0,0,0,18.88,17.77Z"/><path class="cls-1" d="M15.09,20.41h0a1.7,1.7,0,0,0-.2-.81,1.7,1.7,0,0,0,1-1.15A1.62,1.62,0,0,0,16,18h0a1.68,1.68,0,0,0-.2-.81,1.45,1.45,0,0,0,.38-.22,1.68,1.68,0,0,0,.72-1.38h0a1.7,1.7,0,0,0-1.7-1.7H10.76l1.1-2.65h0V9.08a2,2,0,0,0-4.06,0l0,1.07a.79.79,0,0,1-.23.57L4.38,13.9H3.83V12.66H0V25H3.83v-.49h8.6a1.7,1.7,0,0,0,1.7-1.7h0a1.77,1.77,0,0,0-.19-.79A1.7,1.7,0,0,0,15.09,20.41Zm-2.66.7h-.55v1h.55a.7.7,0,1,1,0,1.4H3.78V14.9h1l3.46-3.51a1.77,1.77,0,0,0,.52-1.25l0-1.08a1,1,0,0,1,1-1,1,1,0,0,1,1,1v2L9.25,14.9h5.94a.71.71,0,0,1,0,1.41H11.88v1h2.41a.7.7,0,1,1,0,1.4H11.88v1h1.51a.7.7,0,1,1,0,1.4Z"/></svg>