<svg id="Layer_1" data-name="Layer 1" xmlns="http://www.w3.org/2000/svg" viewBox="0 0 25 25"><defs><style>.cls-1{fill:#807f83;}</style></defs><title>rank_sort</title><path class="cls-1" d="M17.28,12.5V0H7.8V6.22H0V25H25V12.5ZM7.78,24H1V7.22H7.78Zm6.49-1H12.42V14H10.47V12.68c1.57,0,2.13-.34,2.55-1.49h1.25ZM24,24H17.3V13.5H24Z"/><path class="cls-1" d="M6.61,21.82H4.11v-.18c0-.59.2-1,1-1.85,1.23-1.29,1.63-2.18,1.63-3.18,0-1.34-.67-2.11-2-2.11s-2,.77-2,2.11v.82H4.05v-.9c0-.6.26-.83.68-.83s.69.2.69,1a3.45,3.45,0,0,1-1.3,2.48,3.82,3.82,0,0,0-1.32,3V23H6.61Z"/><path class="cls-1" d="M20.65,23c1.29,0,2-.73,2-2.08V20.2a1.61,1.61,0,0,0-1-1.73v0c.65-.24.94-.79.94-1.69v-.3c0-1.35-.67-2.08-1.93-2.08s-1.93.75-1.93,2.09v.44H20v-.55c0-.55.26-.78.64-.78s.66.24.66.84V17c0,.67-.3.89-.79.89H20v1.2h.44c.6,0,.87.29.87,1.07v.68c0,.74-.27.95-.69.95s-.68-.23-.68-.83v-.74H18.68v.68A1.82,1.82,0,0,0,20.65,23Z"/></svg>