<svg id="Layer_1" data-name="Layer 1" xmlns="http://www.w3.org/2000/svg" viewBox="0 0 25 25"><defs><style>.cls-1{fill:#807f83;}</style></defs><path class="cls-1" d="M3.58,8.36H13.84V0H3.58ZM12.84,1V5.44l-1.9-1.8L8.51,5.76,6.36,4.24,4.58,5.78V1ZM4.58,7.11l1.84-1.6L8.58,7l2.33-2,1.93,1.83v.54H4.58Z"/><path class="cls-1" d="M8.55,4.31A1.52,1.52,0,1,0,7,2.8,1.52,1.52,0,0,0,8.55,4.31Zm0-2A.52.52,0,1,1,8,2.8.51.51,0,0,1,8.55,2.28Z"/><path class="cls-1" d="M3.58,25H13.84V16.64H3.58Zm9.26-7.36v4.44l-1.9-1.81L8.51,22.4,6.36,20.88,4.58,22.42V17.64ZM4.58,23.75l1.84-1.6,2.16,1.52,2.33-2,1.93,1.83V24H4.58Z"/><path class="cls-1" d="M8.55,21A1.52,1.52,0,1,0,7,19.44,1.52,1.52,0,0,0,8.55,21Zm0-2a.52.52,0,1,1-.52.52A.51.51,0,0,1,8.55,18.92Z"/><rect class="cls-1" x="3.58" y="11.75" width="10.25" height="1.5"/><polygon class="cls-1" points="18.51 5.46 15.6 11.36 21.42 11.36 18.51 5.46"/><polygon class="cls-1" points="18.51 19.54 21.42 13.64 15.6 13.64 18.51 19.54"/></svg>