<svg id="Layer_1" data-name="Layer 1" xmlns="http://www.w3.org/2000/svg" viewBox="0 0 25 25"><defs><style>.cls-1{fill:#807f83;}</style></defs><path class="cls-1" d="M18.14,3.14a3.17,3.17,0,0,1,.07.69,3.59,3.59,0,0,1-.09.81H25V3.14Z"/><path class="cls-1" d="M11,3.14H0v1.5H11a3.59,3.59,0,0,1-.09-.81A3.17,3.17,0,0,1,11,3.14Z"/><path class="cls-1" d="M17,3.83a2.39,2.39,0,1,0-2.39,2.39A2.39,2.39,0,0,0,17,3.83Z"/><path class="cls-1" d="M10.05,12.5a3.59,3.59,0,0,1-.1.81H25v-1.5H10A3.84,3.84,0,0,1,10.05,12.5Z"/><path class="cls-1" d="M2.84,11.81H0v1.5H2.87a3.59,3.59,0,0,1-.1-.81A3.11,3.11,0,0,1,2.84,11.81Z"/><path class="cls-1" d="M8.8,12.5a2.39,2.39,0,1,0-2.39,2.39A2.39,2.39,0,0,0,8.8,12.5Z"/><path class="cls-1" d="M15,20.47H0V22H15.05a3.58,3.58,0,0,1-.1-.8A4.05,4.05,0,0,1,15,20.47Z"/><path class="cls-1" d="M22.23,21.17a3.58,3.58,0,0,1-.1.8H25v-1.5H22.16A3.26,3.26,0,0,1,22.23,21.17Z"/><path class="cls-1" d="M21,21.17a2.39,2.39,0,1,0-2.39,2.39A2.39,2.39,0,0,0,21,21.17Z"/></svg>