<svg id="Layer_1" data-name="Layer 1" xmlns="http://www.w3.org/2000/svg" viewBox="0 0 25 25"><defs><style>.cls-1{fill:#807f83;}</style></defs><polygon class="cls-1" points="8 7.25 23.5 7.25 23.5 17.75 8 17.75 8 19.25 25 19.25 25 5.75 8 5.75 8 7.25"/><polygon class="cls-1" points="4 17.75 1.5 17.75 1.5 7.25 4 7.25 4 5.75 0 5.75 0 19.25 4 19.25 4 17.75"/><polygon class="cls-1" points="7 21.25 7 3.75 10 3.75 10 1.75 2 1.75 2 3.75 5 3.75 5 21.25 2 21.25 2 23.25 10 23.25 10 21.25 7 21.25"/><path class="cls-1" d="M9.5,15.34l-.28.93a4.39,4.39,0,0,0,2.19.55c2,0,3-1.15,3-2.47a2.16,2.16,0,0,0-.55-1.53,4.34,4.34,0,0,0-1.64-1,5.68,5.68,0,0,1-.77-.34,1.4,1.4,0,0,1-.94-1.31c0-.59.45-1.29,1.62-1.29a3,3,0,0,1,.54,0,3.21,3.21,0,0,1,1.09.37l.31-.91A4,4,0,0,0,12.18,8C10.51,8,9.4,9,9.4,10.29a2,2,0,0,0,.16.83,2,2,0,0,0,.45.66,2.92,2.92,0,0,0,.32.28,5.4,5.4,0,0,0,1.34.67c.87.33,1.34.67,1.53,1.16a1.63,1.63,0,0,1,.09.55,1.31,1.31,0,0,1-.48,1.05,2,2,0,0,1-1.32.41,4,4,0,0,1-1.1-.16A4.33,4.33,0,0,1,9.5,15.34Z"/></svg>