<svg id="Layer_1" data-name="Layer 1" xmlns="http://www.w3.org/2000/svg" viewBox="0 0 25 25"><defs><style>.cls-1{fill:#807f83;}</style></defs><polygon class="cls-1" points="25 8.58 19.3 7.59 16.6 2.47 13.9 7.59 10.14 8.24 11.59 10.99 12.85 11.21 11.26 9.57 14.16 9.07 14.88 8.94 15.23 8.29 16.6 5.69 17.97 8.29 18.32 8.94 19.04 9.07 21.94 9.57 19.89 11.68 19.38 12.21 19.48 12.94 19.9 15.85 17.26 14.55 16.6 14.23 16.05 14.5 13.56 17.06 13.61 17.37 16.6 15.9 21.79 18.45 20.97 12.72 25 8.58"/><path class="cls-1" d="M12.77,16.8l4-4.15-5.7-1L8.4,6.55,5.7,11.67l-5.7,1L4,16.8l-.82,5.73L8.4,20l5.19,2.56ZM11.7,19.93l-2.64-1.3L8.4,18.3l-.66.33L5.1,19.93,5.52,17l.1-.73-.51-.53-2.05-2.1L6,13.14,6.68,13,7,12.37,8.4,9.76l1.37,2.61.35.65.72.12,2.9.51-2.05,2.1-.51.53.1.73Z"/></svg>