<svg id="Layer_1" data-name="Layer 1" xmlns="http://www.w3.org/2000/svg" viewBox="0 0 25 25"><defs><style>.cls-1{fill:#807f83;}</style></defs><path class="cls-1" d="M21.14,6.7V7H15.47a1.75,1.75,0,0,0-.4,0H11l1-2.37V2.29a2.29,2.29,0,0,0-4.58,0V3.35a.61.61,0,0,1-.17.39L4.09,6.9H3.86v-1H0V18.32H3.86v-.25H9.59a1.75,1.75,0,0,0,.4.05h4.1l-1,2.37v2.24a2.29,2.29,0,0,0,4.58,0V21.67a.6.6,0,0,1,.17-.4L21,18.12h.17v1H25V6.7Zm-5,16a.79.79,0,0,1-1.58,0V20.79l1.73-4.17H14.17a1.69,1.69,0,0,0,.08-.5,1.85,1.85,0,0,0-.12-.67,2,2,0,0,0,1.08-1.75,1.92,1.92,0,0,0-.12-.69,2,2,0,0,0,1-1.73,1.77,1.77,0,0,0-.13-.69,2,2,0,0,0,1-1.73A1.84,1.84,0,0,0,17,8.45h4.25v8.17h-.89l-3.55,3.6a2.11,2.11,0,0,0-.6,1.44ZM3.83,8.4h.89L8.27,4.8a2.11,2.11,0,0,0,.6-1.44V2.28a.79.79,0,0,1,1.58,0V4.23L8.72,8.4h6.35a.46.46,0,0,1,0,.92H11.74v1.5h2.42a.46.46,0,1,1,0,.92H11.74v1.5h1.51a.45.45,0,0,1,.46.46.46.46,0,0,1-.46.46H11.74v1.5h.55a.46.46,0,1,1,0,.91H3.83Z"/></svg>