<svg id="Layer_1" data-name="Layer 1" xmlns="http://www.w3.org/2000/svg" viewBox="0 0 25 25"><defs><style>.cls-1{fill:#807f83;}</style></defs><path class="cls-1" d="M25,12.59l-5.44,1.66v-5H0V25H19.56V20.31L25,22Zm-1.5,7.35-3.44-1.05V15.66l3.44-1.05Zm-22-9.15H18.06V23.5H14.81a5.07,5.07,0,0,0-10.07,0H1.5Z"/><path class="cls-1" d="M5,7.68A3.84,3.84,0,1,0,1.2,3.84,3.84,3.84,0,0,0,5,7.68ZM7.38,3.84A2.34,2.34,0,1,1,5,1.5,2.34,2.34,0,0,1,7.38,3.84Z"/><path class="cls-1" d="M14.46,7.68a3.84,3.84,0,1,0-3.84-3.84A3.84,3.84,0,0,0,14.46,7.68Zm0-6.18a2.34,2.34,0,1,1-2.34,2.34A2.34,2.34,0,0,1,14.46,1.5Z"/><path class="cls-1" d="M9.78,18a3,3,0,1,0-3-3A3,3,0,0,0,9.78,18Z"/></svg>