<svg id="Layer_1" data-name="Layer 1" xmlns="http://www.w3.org/2000/svg" viewBox="0 0 25 25"><defs><style>.cls-1{fill:#807f83;}</style></defs><path class="cls-1" d="M16,3.22,12.8,0,5.7,7.14,3.07,4.68,0,8,5.8,13.4ZM2.12,7.9l1-1.1L5.73,9.22,12.8,2.15l1.06,1.07L5.77,11.31Z"/><path class="cls-1" d="M25,16.29l-2.86-2.87-2.93,2.93-2.92-2.93-2.87,2.87,2.93,2.92-2.93,2.93L16.29,25l2.92-2.93L22.14,25,25,22.14l-2.92-2.93Zm-2.86,6.59L19.21,20l-2.92,2.93-.75-.74,2.93-2.93-2.93-2.92.75-.75,2.92,2.93,2.93-2.93.74.75L20,19.21l2.93,2.93Z"/><rect class="cls-1" x="-1.33" y="11.75" width="27.66" height="1.5" transform="translate(-5.18 12.5) rotate(-45)"/></svg>