<svg width="16" height="16" xmlns="http://www.w3.org/2000/svg" class="bi bi-save2">
 <g>
  <title>Layer 1</title>
  <path d="m2,1a1,1 0 0 0 -1,1l0,12a1,1 0 0 0 1,1l12,0a1,1 0 0 0 1,-1l0,-12a1,1 0 0 0 -1,-1l-4.5,0a1,1 0 0 0 -1,1l0,4.5l2,0a0.5,0.5 0 0 1 0.354,0.854l-2.5,2.5a0.5,0.5 0 0 1 -0.708,0l-2.5,-2.5a0.5,0.5 0 0 1 0.354,-0.854l2,0l0,-4.5a2,2 0 0 1 2,-2l4.5,0a2,2 0 0 1 2,2l0,12a2,2 0 0 1 -2,2l-12,0a2,2 0 0 1 -2,-2l0,-12a2,2 0 0 1 2,-2l2.5,0a0.5,0.5 0 0 1 0,1l-2.5,0z" id="svg_1" fill="#666666"/>
 </g>

</svg>